<?xml version="1.0" encoding="iso-8859-1"?>
<!-- Generator: Adobe Illustrator 19.0.0, SVG Export Plug-In . SVG Version: 6.00 Build 0)  -->
<svg version="1.1" id="Capa_1" xmlns="http://www.w3.org/2000/svg" xmlns:xlink="http://www.w3.org/1999/xlink" x="0px" y="0px"
	 viewBox="0 0 359.78 359.78" style="enable-background:new 0 0 359.78 359.78;" xml:space="preserve">
<path style="fill:#F8305F;" d="M175.892,331.19c-72-38.4-156-128.8-167.2-202.4c-5.6-28,4-56.8,24.8-76c16-16,37.6-25.6,60-26.4
	c41.6,0,74.4,36,83.2,47.2l2.4,3.2l0,0l1.6-1.6c6.4-8,40-48.8,84-48.8c22.4,0.8,44,10.4,60,26.4c20.8,19.2,30.4,48,25.6,75.2
	c-10.4,74.4-94.4,164.8-166.4,203.2l-4,2.4L175.892,331.19z M168.692,135.99l32,29.6l-20.8,45.6l20.8-44.8L168.692,135.99l10.4-55.2
	L168.692,135.99z"/>
<path style="fill:#28150B;" d="M265.492,19.19c-40.8,0-72,30.4-85.6,45.6c-12.8-15.2-44.8-45.6-85.6-45.6
	c-24.8,0.8-48,11.2-65.6,28.8c-22.4,20.8-32.8,52-27.2,82.4c10.4,76.8,100.8,172.8,174.4,209.6c2.4,0.8,4.8,0.8,7.2,0
	c74.4-36.8,164-132.8,175.2-209.6c5.6-30.4-4.8-61.6-28-82.4C313.492,30.39,290.292,19.99,265.492,19.19z M342.292,127.99
	c-9.6,71.2-92.8,159.2-162.4,196c-69.6-36.8-152.8-124.8-163.2-196c-4.8-25.6,4-51.2,22.4-68.8c14.4-15.2,33.6-24,54.4-24.8
	c38.4,0,68.8,34.4,76.8,44.8l-10.4,55.2c-0.8,2.4,0.8,5.6,2.4,7.2l28,25.6l-18.4,40c-1.6,3.2-0.8,6.4,0.8,8.8l12.8,15.2l-2.4,24.8
	c-0.8,4,2.4,8,7.2,8.8l0,0h0.8c4,0,7.2-3.2,8-7.2l3.2-28c0-2.4-0.8-4-1.6-6.4l-12-14.4l19.2-40c1.6-3.2,0.8-7.2-1.6-8.8l-28.8-27.2
	l9.6-52.8c5.6-7.2,37.6-45.6,77.6-45.6c20.8,0.8,40,9.6,54.4,24.8C339.092,76.79,347.092,103.19,342.292,127.99z"/>
<g>
</g>
<g>
</g>
<g>
</g>
<g>
</g>
<g>
</g>
<g>
</g>
<g>
</g>
<g>
</g>
<g>
</g>
<g>
</g>
<g>
</g>
<g>
</g>
<g>
</g>
<g>
</g>
<g>
</g>
</svg>
